<?xml version="1.0" standalone="no"?>
<!DOCTYPE svg PUBLIC "-//W3C//DTD SVG 20010904//EN"
 "http://www.w3.org/TR/2001/REC-SVG-20010904/DTD/svg10.dtd">
<svg version="1.0" xmlns="http://www.w3.org/2000/svg"
 width="529.000000pt" height="189.000000pt" viewBox="0 0 529.000000 189.000000"
 preserveAspectRatio="xMidYMid meet">

<g transform="translate(0.000000,189.000000) scale(0.100000,-0.100000)"
fill="#000000" stroke="none">
<path d="M427 1876 c-50 -18 -85 -51 -108 -101 -53 -114 22 -243 146 -253 71
-6 97 2 141 40 79 70 86 185 16 264 -44 51 -132 73 -195 50z"/>
<path d="M890 1619 c-85 -23 -230 -90 -435 -203 -77 -42 -156 -81 -177 -88
-85 -26 -119 19 -101 136 6 39 14 79 18 89 7 15 -1 17 -89 17 l-96 0 0 -130
c0 -146 11 -214 44 -262 28 -43 64 -55 118 -41 l41 11 -32 -25 c-67 -53 -95
-161 -80 -318 16 -172 73 -393 100 -386 94 24 165 45 171 50 4 4 -11 51 -33
105 -73 177 -84 295 -34 354 21 25 29 27 92 26 82 0 172 -30 345 -112 210
-100 612 -340 823 -492 89 -64 163 -106 172 -96 11 11 -47 82 -149 182 -154
151 -223 202 -510 383 -54 33 -142 89 -195 123 -130 82 -289 160 -394 193 -72
22 -101 26 -173 23 -47 -2 -86 -2 -86 -1 0 0 25 15 57 33 31 18 115 71 187
120 233 156 435 242 572 244 64 0 80 -4 147 -38 42 -21 80 -35 86 -31 41 25
-31 123 -104 144 -63 17 -201 12 -285 -10z"/>
<path d="M3405 1571 c-54 -24 -81 -94 -64 -172 8 -37 24 -63 69 -112 83 -90
95 -131 52 -179 -18 -22 -48 -23 -84 -4 l-28 15 0 -40 c0 -33 4 -41 26 -49 46
-18 100 -12 132 15 41 34 55 75 50 140 -4 44 -11 63 -37 93 -96 112 -111 135
-111 163 0 57 50 81 112 55 14 -6 16 -2 14 29 -2 19 -6 38 -9 42 -11 10 -101
13 -122 4z"/>
<path d="M4308 1564 c-53 -28 -71 -84 -76 -230 -5 -164 7 -231 52 -279 30 -31
39 -35 86 -35 47 0 56 4 86 35 45 48 57 109 52 275 -3 116 -7 141 -26 177 -35
68 -110 92 -174 57z m105 -96 c15 -30 18 -62 18 -168 0 -152 -16 -205 -61
-205 -45 0 -61 53 -61 202 0 122 8 170 33 201 19 23 52 9 71 -30z"/>
<path d="M5125 1571 c-68 -30 -90 -137 -45 -221 7 -13 35 -47 61 -75 71 -75
82 -121 41 -167 -19 -22 -44 -23 -82 -3 l-30 16 0 -41 c0 -34 4 -42 26 -50 46
-18 100 -12 132 15 41 34 55 75 50 140 -4 44 -11 63 -37 93 -96 112 -111 135
-111 163 0 56 50 81 110 55 12 -5 15 1 14 29 -1 20 -5 39 -8 42 -10 10 -100
13 -121 4z"/>
<path d="M1552 1298 l3 -273 38 -3 37 -3 1 138 c0 76 4 129 8 118 4 -11 27
-73 51 -138 l42 -117 34 4 c19 2 37 6 40 9 3 2 -20 65 -50 140 l-56 135 50
123 c28 67 50 127 50 131 0 5 -16 8 -37 6 l-36 -3 -48 -125 -48 -125 -1 128 0
127 -41 0 -40 0 3 -272z"/>
<path d="M1935 1558 c-7 -23 -105 -482 -107 -508 -3 -21 1 -25 25 -25 35 -1
43 9 52 63 l7 42 53 0 54 0 7 -37 c10 -58 21 -73 54 -73 22 0 30 5 30 18 0 10
-25 131 -55 270 -30 139 -55 255 -55 257 0 11 -61 4 -65 -7z m51 -230 c8 -57
17 -111 20 -120 5 -15 -1 -18 -38 -18 l-44 0 20 125 c11 68 22 123 24 120 2
-2 10 -50 18 -107z"/>
<path d="M2160 1300 c0 -148 3 -270 8 -271 4 0 15 -2 26 -4 39 -8 42 1 42 125
-1 65 2 116 6 112 4 -4 23 -52 43 -106 20 -55 40 -106 44 -115 8 -14 81 -25
81 -12 -1 3 -22 62 -49 130 l-47 125 28 25 c54 49 56 193 3 238 -22 20 -37 23
-106 23 l-79 0 0 -270z m124 194 c17 -17 19 -28 17 -88 -1 -41 -24 -76 -48
-76 -7 0 -13 6 -14 13 -1 14 0 161 0 165 2 8 32 -1 45 -14z"/>
<path d="M2462 1298 c3 -262 4 -271 23 -274 11 -2 28 -1 38 2 16 5 17 27 17
275 l0 269 -40 0 -40 0 2 -272z"/>
<path d="M2622 1298 c3 -262 4 -271 23 -274 11 -2 29 -1 39 2 18 6 19 15 12
192 -4 103 -5 184 -3 182 2 -3 28 -84 57 -180 29 -96 56 -180 61 -186 5 -6 21
-11 36 -10 l28 1 3 273 2 272 -41 0 -42 0 7 -152 c4 -84 9 -173 12 -198 4 -25
4 -43 1 -40 -2 3 -30 92 -62 198 l-58 192 -39 0 -38 0 2 -272z"/>
<path d="M2961 1300 c1 -184 6 -270 13 -273 6 -2 49 -3 96 -3 l85 1 3 33 3 32
-60 0 -61 0 0 90 0 90 55 0 55 0 0 35 0 35 -55 0 -55 0 0 85 0 85 60 0 60 0 0
30 0 30 -101 0 -100 0 2 -270z"/>
<path d="M3570 1540 c0 -29 2 -30 45 -30 l45 0 0 -245 0 -246 28 5 c15 2 32 5
37 5 6 1 10 87 10 238 l0 238 36 3 c25 2 38 9 41 20 10 39 0 42 -123 42 l-119
0 0 -30z"/>
<path d="M4000 1295 l0 -276 98 3 97 3 3 33 3 32 -60 0 -61 0 0 240 0 240 -40
0 -40 0 0 -275z"/>
<path d="M4589 1368 c-1 -252 0 -266 17 -301 19 -36 56 -50 121 -45 62 5 89
26 103 77 5 20 10 134 10 254 l0 217 -40 0 -40 0 0 -228 c0 -246 -1 -252 -52
-252 -21 0 -31 6 -38 26 -6 14 -10 122 -10 240 l0 214 -35 0 -35 0 -1 -202z"/>
<path d="M4922 1298 l3 -273 35 0 35 0 3 273 2 272 -40 0 -40 0 2 -272z"/>
<path d="M965 1460 c-38 -42 -9 -110 47 -110 35 0 68 32 68 65 0 56 -77 86
-115 45z"/>
<path d="M1179 1399 c-18 -18 -19 -23 -6 -42 18 -28 40 -32 61 -12 20 21 20
39 0 59 -20 21 -30 20 -55 -5z"/>
<path d="M795 1285 c-56 -55 -16 -155 60 -155 48 0 95 45 95 90 0 76 -102 119
-155 65z"/>
<path d="M3805 1220 c-3 -11 -4 -24 -1 -28 7 -11 126 -15 127 -5 0 4 2 18 5
31 4 21 1 22 -60 22 -56 0 -66 -3 -71 -20z"/>
<path d="M991 1044 c-24 -30 -26 -43 -10 -77 11 -25 47 -47 75 -47 26 0 64 47
64 80 0 67 -88 97 -129 44z"/>
<path d="M4020 920 c-6 -11 -7 -20 -2 -20 5 0 17 9 27 20 16 18 16 20 2 20 -9
0 -21 -9 -27 -20z"/>
<path d="M1244 856 c-3 -8 -4 -25 -2 -38 2 -18 9 -23 32 -23 36 0 56 27 40 53
-14 22 -62 28 -70 8z"/>
<path d="M1936 850 c-15 -64 -46 -210 -46 -215 0 -4 4 -4 9 -1 5 3 16 46 26
96 10 49 19 90 20 90 2 0 20 -42 40 -92 20 -51 38 -94 40 -96 1 -2 20 40 41
92 20 53 39 95 41 93 1 -2 10 -39 18 -83 19 -94 24 -109 31 -101 7 6 -38 227
-47 227 -3 0 -23 -43 -43 -96 -21 -52 -40 -94 -41 -92 -2 2 -21 48 -43 103
-33 81 -42 95 -46 75z"/>
<path d="M2341 849 c-5 -13 -26 -66 -46 -117 -21 -51 -35 -95 -32 -99 4 -3 14
13 23 36 16 41 17 41 68 41 50 0 51 -1 68 -42 10 -23 21 -39 24 -36 4 5 -81
226 -92 237 -2 2 -8 -7 -13 -20z m37 -71 l21 -48 -44 0 -44 0 21 50 c11 28 22
49 23 48 1 -2 12 -24 23 -50z"/>
<path d="M2587 852 c-35 -39 -18 -70 62 -114 50 -28 38 -88 -18 -88 -14 0 -35
10 -48 22 -19 18 -23 19 -23 5 0 -21 38 -47 68 -47 31 0 74 44 70 73 -2 14
-23 35 -55 57 -58 37 -70 70 -32 90 16 9 26 8 45 -5 25 -16 33 -8 12 13 -18
18 -63 14 -81 -6z"/>
<path d="M2847 852 c-20 -22 -22 -57 -4 -72 6 -6 30 -21 52 -34 44 -24 55 -54
30 -80 -23 -23 -60 -20 -86 7 -19 20 -21 21 -17 2 5 -27 48 -50 81 -41 34 8
61 48 52 76 -4 11 -25 32 -48 46 -55 34 -69 52 -57 74 14 26 40 32 66 15 25
-16 33 -8 12 13 -18 18 -63 14 -81 -6z"/>
<path d="M3116 839 c-64 -56 -56 -145 16 -189 104 -63 219 51 163 160 -34 65
-122 79 -179 29z m120 6 c41 -17 69 -71 59 -116 -17 -76 -120 -105 -176 -50
-49 50 -38 123 24 161 38 24 47 24 93 5z"/>
<path d="M3420 860 c0 -5 13 -10 30 -10 l29 0 4 -112 3 -113 2 113 2 112 30 0
c17 0 30 5 30 10 0 6 -28 10 -65 10 -37 0 -65 -4 -65 -10z"/>
<path d="M3674 750 c0 -69 1 -97 3 -62 l4 62 69 0 70 0 0 -54 c0 -30 5 -58 10
-61 6 -4 10 37 10 114 0 74 -4 121 -10 121 -5 0 -10 -22 -10 -50 l0 -50 -69 0
-70 0 -4 53 c-2 28 -3 -4 -3 -73z"/>
<path d="M3980 750 l0 -120 55 0 c30 0 55 5 55 10 0 6 -23 10 -51 10 l-50 0 3
53 3 52 50 6 50 6 -52 1 -53 2 0 40 0 40 50 0 c28 0 50 5 50 10 0 6 -25 10
-55 10 l-55 0 0 -120z"/>
<path d="M4232 748 c1 -94 3 -109 7 -63 l6 60 33 -45 c19 -25 37 -52 42 -60 5
-8 12 -12 15 -8 4 4 -9 29 -29 56 -41 57 -43 62 -18 62 27 0 42 20 42 56 0 38
-29 64 -72 64 l-28 0 2 -122z m78 83 c18 -35 -6 -71 -47 -71 -21 0 -23 5 -23
45 0 43 1 45 30 45 19 0 33 -7 40 -19z"/>
<path d="M4537 863 c-16 -26 -87 -217 -84 -226 2 -6 11 8 20 31 17 42 17 42
68 42 49 0 51 -1 67 -40 9 -22 21 -40 26 -40 4 0 6 6 3 13 -40 100 -90 223
-92 225 -2 2 -5 0 -8 -5z m37 -111 c7 -20 4 -22 -33 -22 -45 0 -44 -8 -10 78
l11 27 13 -31 c7 -17 16 -40 19 -52z"/>
<path d="M4758 818 c-2 -29 -1 -84 2 -123 l4 -70 6 60 c5 58 6 60 35 63 91 10
82 122 -9 122 l-35 0 -3 -52z m80 20 c7 -7 12 -21 12 -33 0 -29 -19 -45 -52
-45 -27 0 -28 2 -28 45 0 43 1 45 28 45 15 0 33 -5 40 -12z"/>
<path d="M4990 749 c0 -77 4 -118 10 -114 6 4 10 55 10 121 0 69 -4 114 -10
114 -6 0 -10 -47 -10 -121z"/>
<path d="M5150 750 l0 -120 55 0 c30 0 55 5 55 10 0 6 -23 10 -51 10 l-50 0 3
53 3 52 50 6 50 6 -52 1 -53 2 0 40 0 40 50 0 c28 0 50 5 50 10 0 6 -25 10
-55 10 l-55 0 0 -120z"/>
<path d="M1462 750 c-43 -18 -48 -78 -9 -105 29 -20 53 -19 77 5 27 27 25 56
-5 85 -26 27 -29 28 -63 15z"/>
<path d="M1698 560 c-33 -25 -39 -49 -22 -88 14 -34 48 -48 90 -38 28 7 55 57
46 88 -6 23 -49 58 -72 58 -10 0 -29 -9 -42 -20z"/>
<path d="M3006 535 c-19 -29 -7 -33 18 -6 10 11 13 22 8 25 -6 3 -17 -5 -26
-19z"/>
<path d="M4116 535 c-19 -29 -7 -33 18 -6 10 11 13 22 8 25 -6 3 -17 -5 -26
-19z"/>
<path d="M2254 365 c0 -66 1 -96 3 -67 2 28 7 52 11 52 4 0 30 -22 57 -50 27
-27 54 -50 59 -50 6 0 -15 26 -47 58 l-57 58 55 54 c31 30 51 56 45 58 -5 2
-32 -19 -59 -47 -27 -28 -52 -51 -55 -51 -3 0 -7 24 -9 53 -2 28 -3 -2 -3 -68z"/>
<path d="M2490 365 c0 -70 4 -115 10 -115 6 0 10 45 10 115 0 70 -4 115 -10
115 -6 0 -10 -45 -10 -115z"/>
<path d="M2630 368 c0 -72 4 -118 10 -118 6 0 10 38 10 94 l0 94 83 -86 c45
-47 88 -92 95 -100 10 -11 12 11 10 110 l-2 123 -5 -104 -6 -104 -97 104 -98
104 0 -117z"/>
<path d="M2960 365 l0 -115 58 2 c56 2 56 2 10 5 l-48 4 0 54 0 54 48 4 47 3
-47 2 -48 2 0 44 0 45 48 4 c46 3 46 3 -10 5 l-58 2 0 -115z"/>
<path d="M3204 455 c-23 -35 -10 -62 45 -90 56 -28 68 -48 46 -81 -20 -32 -68
-32 -89 -2 -9 12 -19 18 -23 14 -11 -10 43 -56 66 -56 32 0 71 39 71 71 0 23
-7 34 -31 47 -79 43 -100 80 -60 102 27 14 37 13 56 -6 9 -9 19 -13 23 -9 11
11 -29 35 -60 35 -18 0 -33 -8 -44 -25z"/>
<path d="M3430 366 c0 -71 4 -116 10 -116 6 0 10 43 10 109 0 63 -4 112 -10
116 -6 4 -10 -35 -10 -109z"/>
<path d="M3575 471 l30 -6 5 -110 6 -110 4 110 5 110 30 6 c19 4 5 7 -40 7
-45 0 -59 -3 -40 -7z"/>
<path d="M3780 365 c0 -70 4 -115 10 -115 6 0 10 27 10 60 l0 61 68 -3 67 -3
6 -60 c4 -43 6 -25 6 60 0 74 -2 101 -6 70 l-6 -50 -67 -3 -68 -3 0 51 c0 27
-4 50 -10 50 -6 0 -10 -45 -10 -115z"/>
<path d="M4077 473 c-4 -3 -7 -55 -7 -115 l0 -108 58 2 c56 2 56 2 10 5 l-48
4 0 54 0 54 48 4 47 3 -47 2 -48 2 0 44 0 45 48 4 47 3 -51 2 c-28 1 -54 -1
-57 -5z"/>
<path d="M4300 365 c0 -66 4 -115 9 -115 6 0 11 23 13 52 l3 52 35 -52 c32
-47 50 -64 50 -44 0 4 -14 25 -30 46 -33 44 -37 56 -16 56 18 0 46 38 46 62 0
30 -37 58 -75 58 l-35 0 0 -115z m78 83 c19 -16 14 -56 -7 -68 -41 -21 -51
-13 -51 41 0 48 1 50 23 43 12 -3 28 -11 35 -16z"/>
<path d="M4548 364 c-26 -64 -42 -114 -35 -111 6 2 16 18 21 35 9 31 11 32 63
32 53 0 54 -1 69 -36 8 -20 18 -34 21 -30 6 5 -72 204 -86 218 -3 4 -27 -45
-53 -108z m72 30 c11 -25 20 -48 20 -50 0 -2 -18 -4 -41 -4 -29 0 -40 4 -36
13 2 6 10 29 18 50 7 20 15 37 16 37 2 0 13 -21 23 -46z"/>
<path d="M4802 363 c1 -65 3 -92 5 -60 l4 57 34 0 c36 0 65 28 65 62 0 30 -37
58 -75 58 l-35 0 2 -117z m80 84 c24 -37 -3 -77 -51 -77 -19 0 -21 6 -21 51
l0 52 32 -7 c18 -3 36 -12 40 -19z"/>
<path d="M5010 365 c0 -70 4 -115 10 -115 6 0 10 45 10 115 0 70 -4 115 -10
115 -6 0 -10 -45 -10 -115z"/>
<path d="M5150 365 l0 -115 58 2 57 1 -50 6 -50 6 0 50 0 50 50 6 50 5 -50 5
-50 4 0 40 0 40 50 6 50 6 -57 1 -58 2 0 -115z"/>
<path d="M1942 375 c-56 -24 -70 -93 -28 -142 19 -22 33 -28 64 -28 72 0 112
68 78 134 -9 17 -18 31 -19 31 -1 0 -16 4 -33 9 -21 6 -40 4 -62 -4z"/>
<path d="M1592 171 c-8 -4 -12 -21 -10 -37 2 -25 7 -29 32 -29 36 0 56 27 40
53 -13 19 -43 26 -62 13z"/>
<path d="M1782 124 c-28 -19 -30 -74 -4 -97 45 -41 119 -2 108 57 -11 53 -59
72 -104 40z"/>
</g>
</svg>
